# AST/ASF file generated using VICON BodyLanguage
# -----------------------------------------------
:version 1.10
:name VICON
:units
  mass 1.0
  length 0.45
  angle deg
:documentation
   .ast/.asf automatically generated from VICON data using
   VICON BodyBuilder and BodyLanguage model FoxedUp or BRILLIANT.MOD
:root
   order TX TY TZ RX RY RZ
   axis XYZ
   position 0 0 0  
   orientation 0 0 0 
:bonedata
  begin
     id 1 
     name lhipjoint
     direction 0.61522 -0.761478 0.204097 
     length 2.55743 
     axis 0 0 0  XYZ
  end
  begin
     id 2 
     name lfemur
     direction 0.34202 -0.939693 0  
     length 7.61162  
     axis 0 0 20  XYZ
    dof rx ry rz
    limits (-160.0 20.0)
           (-70.0 70.0)
           (-60.0 70.0)
  end
  begin
     id 3 
     name ltibia
     direction 0.34202 -0.939693 0   
     length 8.12393   
     axis 0 0 20   XYZ
    dof rx
    limits (-10.0 170.0)
  end
  begin
     id 4 
     name lfoot
     direction 0.0841971 -0.23133 0.969225   
     length 2.3572   
     axis -90 7.62852e-016 20   XYZ
    dof rx rz
    limits (-45.0 90.0)
           (-70.0 20.0)
  end
  begin
     id 5 
     name ltoes
     direction 1.53562e-011 -4.22209e-011 1   
     length 1.17993   
     axis -90 7.62852e-016 20   XYZ
    dof rx
    limits (-90.0 20.0)
  end
  begin
     id 6 
     name rhipjoint
     direction -0.625247 -0.75382 0.202044   
     length 2.58341  
     axis 0 0 0  XYZ 
  end
  begin
     id 7 
     name rfemur
     direction -0.34202 -0.939693 0   
     length 7.42147   
     axis 0 0 -20   XYZ
    dof rx ry rz
    limits (-160.0 20.0)
           (-70.0 70.0)
           (-70.0 60.0)
  end
  begin
     id 8 
     name rtibia
     direction -0.34202 -0.939693 0   
     length 8.20893   
     axis 0 0 -20   XYZ
    dof rx
    limits (-10.0 170.0)
 end
 begin
     id 9 
     name rfoot
     direction -0.124331 -0.341598 0.931586   
     length 2.45604  
     axis -90 -7.62852e-016 -20   XYZ
    dof rx rz
    limits (-45.0 90.0)
           (-20.0 70.0)
  end
  begin
     id 10 
     name rtoes
     direction -1.5353e-011 -4.2199e-011 1   
     length 1.21323   
     axis -90 -7.62852e-016 -20   XYZ
    dof rx
    limits (-90.0 20.0)
  end
  begin
     id 11 
     name lowerback
     direction -0.0218484 0.994884 -0.0986303   
     length 2.00523   
     axis 0 0 0   XYZ
    dof rx ry rz
    limits (-20.0 45.0)
           (-30.0 30.0)
           (-30.0 30.0)
  end
  begin
     id 12 
     name upperback
     direction -0.0097305 0.999717 -0.0217111   
     length 2.01352   
     axis 0 0 0   XYZ
    dof rx ry rz
    limits (-20.0 45.0)
           (-30.0 30.0)
           (-30.0 30.0)
  end
  begin
     id 13 
     name thorax
     direction -0.000928262 0.999699 0.0245198   
     length 2.02938   
     axis 0 0 0   XYZ
    dof rx ry rz
    limits (-20.0 45.0)
           (-30.0 30.0)
           (-30.0 30.0)
  end
  begin
     id 14 
     name lowerneck
     direction -0.0307979 0.998024 0.0547665   
     length 1.77263   
     axis 0 0 0   XYZ
    dof rx ry rz
    limits (-20.0 45.0)
           (-30.0 30.0)
           (-30.0 30.0)
  end
  begin
     id 15 
     name upperneck
     direction 0.0531587 0.996611 -0.0627734   
     length 1.77971   
     axis 0 0 0   XYZ
    dof rx ry rz
    limits (-20.0 45.0)
           (-30.0 30.0)
           (-30.0 30.0)
  end
  begin
     id 16
     name head
     direction 0.0213833 0.999404 -0.0271147  
     length 1.78263  
     axis 0 0 0   XYZ
    dof rx ry rz
    limits (-20.0 45.0)
           (-30.0 30.0)
           (-30.0 30.0)
  end
  begin
     id 17 
     name lclavicle
     direction 0.940017 0.332249 -0.0773233  
     length 3.73315  
     axis 0 0 0   XYZ
    dof ry rz
    limits (-20.0 10.0)
           (0.0 20.0)
  end
  begin
     id 18 
     name lhumerus
     direction 1 -4.48944e-011 7.52288e-028   
     length 5.40188   
     axis 180 -30 -90   XYZ
    dof rx ry rz
    limits (-60.0 90.0)
           (-90.0 90.0)
           (-90.0 90.0)
  end
  begin
     id 19
     name lradius
     direction 1 -4.48988e-011 1.48381e-027   
     length 3.68559   
     axis 180 -30 -90   XYZ
    dof rx
    limits (-10.0 170.0)
  end
  begin
     id 20
     name lwrist
     direction 1 -4.48925e-011 2.56952e-028   
     length 1.84279   
     axis -5.12785e-016 90 90   XYZ
    dof ry
    limits (-180.0 0.0)
 end
  begin
     id 21 
     name lhand
     direction 1 -4.49009e-011 5.13905e-028   
     length 0.61753   
     axis -3.27915e-016 90 90   XYZ
    dof rx rz
    limits (-90.0 90.0)
           (-45.0 45.0)
  end
  begin
     id 22 
     name lfingers
     direction 1 -4.49012e-011 1.02781e-027   
     length 0.497868   
     axis -6.5583e-016 90 90   XYZ
    dof rx
    limits (0.0 90.0)
  end
  begin
     id 23
     name lthumb
     direction 0.707107 -6.34987e-011 0.707107   
     length 0.714842   
     axis -90 45 2.85299e-015   XYZ
    dof rx rz
    limits (-45.0 45.0)
           (-45.0 45.0)
  end
  begin
     id 24 
     name rclavicle
     direction -0.9009 0.425937 -0.0834057   
     length 3.27864  
     axis 0 0 0   XYZ 
    dof ry rz
    limits (-10.0 20.0)
           (-20.0 0.0)
  end
  begin
     id 25 
     name rhumerus
     direction -1 -4.48953e-011 -1.03572e-027  
     length 6.1067   
     axis 180 30 90   XYZ
    dof rx ry rz
    limits (-90.0 60.0)
           (-90.0 90.0)
           (-90.0 90.0)
  end
  begin
     id 26 
     name rradius
     direction -1 -4.48975e-011 1.20742e-027   
     length 3.63052   
     axis 180 30 90   XYZ
    dof rx
    limits (-10.0 170.0)
  end
  begin
     id 27 
     name rwrist
     direction -1 -4.49017e-011 2.56952e-028   
     length 1.81526   
     axis -5.12785e-016 -90 -90   XYZ
    dof ry
    limits (-180.0 0.0)
  end
  begin
     id 28
     name rhand
     direction -1 -4.48832e-011 5.13905e-028   
     length 0.583848   
     axis -3.27915e-016 -90 -90   XYZ
    dof rx rz
    limits (-90.0 90.0)
           (-45.0 45.0)
  end
  begin
     id 29
     name rfingers
     direction -1 -4.48729e-011 1.02781e-027   
     length 0.470713   
     axis -6.5583e-016 -90 -90   XYZ
    dof rx
    limits (0.0 90.0)
  end
  begin
     id 30
     name rthumb
     direction -0.707107 -6.34964e-011 0.707107   
     length 0.675852   
     axis -90 -45 -2.85299e-015   XYZ
    dof rx rz
    limits (-45.0 45.0)
           (-45.0 45.0)
  end
:hierarchy
  begin
    root lhipjoint rhipjoint lowerback
    lhipjoint lfemur
    lfemur ltibia
    ltibia lfoot
    lfoot ltoes
    rhipjoint rfemur
    rfemur rtibia
    rtibia rfoot
    rfoot rtoes
    lowerback upperback
    upperback thorax
    thorax lowerneck lclavicle rclavicle
    lowerneck upperneck
    upperneck head
    lclavicle lhumerus
    lhumerus lradius
    lradius lwrist
    lwrist lhand lthumb
    lhand lfingers
    rclavicle rhumerus
    rhumerus rradius
    rradius rwrist
    rwrist rhand rthumb
    rhand rfingers
  end

#!OML:ASF F:\VICON\USERDATA\INSTALL\rory3\rory3.ASF
:FULLY-SPECIFIED
:DEGREES
472
root -3.15728 18.6906 -4.51013 -11.0601 13.5982 7.97269
lowerback 25.6232 12.7384 0.867326
upperback 9.28424 16.9048 2.36785
thorax -3.89255 8.37165 -2.66254
lowerneck -10.4311 -8.30957 -8.75659
upperneck 5.00812 -10.8249 11.0106
head 4.2856 -4.9975 3.98557
rclavicle -1.61413e-013 2.54444e-014
rhumerus 29.0346 -23.8648 -85.1852
rradius 149.532
rwrist -53.4053
rhand -7.30761 7.23633
rfingers 7.12502
rthumb 18.575 -21.8968
lclavicle -1.61413e-013 2.54444e-014
lhumerus -38.2751 20.082 27.7066
lradius 84.6149
lwrist -4.37405
lhand -31.1571 11.0712
lfingers 7.12502
lthumb -4.43487 41.0048
rfemur 2.20808 4.50971 15.9988
rtibia 29.3219
rfoot -18.968 -19.4216
rtoes 5.08052
lfemur -97.9455 -6.28518 -17.3161
ltibia 125.469
lfoot 12.3776 -11.5714
ltoes -4.94056
473
root -3.16943 18.6846 -4.50746 -11.296 13.4353 7.4643
lowerback 25.753 12.7133 1.4127
upperback 9.28063 17.0082 2.47302
thorax -3.83781 8.42954 -2.86569
lowerneck -10.4518 -8.22713 -8.61963
upperneck 5.34479 -10.7516 10.9376
head 4.37241 -4.95569 3.94383
rclavicle 1.73738e-013 -4.29375e-014
rhumerus 28.8088 -23.4516 -85.1247
rradius 149.547
rwrist -53.3518
rhand -7.60003 6.85803
rfingers 7.12502
rthumb 18.2937 -22.3018
lclavicle 1.73738e-013 -4.29375e-014
lhumerus -38.3439 20.5316 27.3378
lradius 84.8228
lwrist -4.29813
lhand -31.2698 11.5709
lfingers 7.12502
lthumb -4.54366 41.5022
rfemur 2.37037 4.7726 16.7047
rtibia 29.1882
rfoot -18.8906 -19.6594
rtoes 5.11386
lfemur -98.408 -5.65817 -17.0846
ltibia 125.923
lfoot 12.0307 -11.9166
ltoes -4.80494
474
root -3.18643 18.6728 -4.50238 -11.7426 13.1116 6.5345
lowerback 26.0332 12.6568 2.31618
upperback 9.24235 17.1686 2.71027
thorax -3.83043 8.51351 -3.15427
lowerneck -10.4338 -8.15669 -8.53191
upperneck 5.73507 -10.6958 10.8756
head 4.47446 -4.92316 3.91224
rclavicle -1.14102e-013 3.18055e-015
rhumerus 28.6599 -23.3536 -85.1036
rradius 149.421
rwrist -52.7985
rhand -7.37975 7.14348
rfingers 7.12502
rthumb 18.5056 -21.9963
lclavicle -1.14102e-013 3.18055e-015
lhumerus -38.4007 20.911 26.9539
lradius 85.0131
lwrist -4.2622
lhand -31.2763 11.8031
lfingers 7.12502
lthumb -4.54994 41.7342
rfemur 2.60444 5.18793 17.9632
rtibia 29.0859
rfoot -18.7728 -20.0431
rtoes 5.11904
lfemur -98.67 -4.56214 -16.4379
ltibia 126.342
lfoot 11.738 -12.6257
ltoes -5.31172
475
root -3.19674 18.6689 -4.4986 -11.8842 13.0804 6.2348
lowerback 26.1273 12.6176 2.63369
upperback 9.18033 17.204 2.79374
thorax -3.88006 8.52921 -3.25671
lowerneck -10.3761 -8.13618 -8.42934
upperneck 6.11782 -10.703 10.727
head 4.56783 -4.92703 3.84705
rclavicle 7.43455e-014 -3.18055e-015
rhumerus 28.6461 -23.4081 -85.0817
rradius 149.172
rwrist -52.0415
rhand -6.52265 7.69792
rfingers 7.12502
rthumb 19.3299 -21.3614
lclavicle 7.43455e-014 -3.18055e-015
lhumerus -38.6292 21.3097 26.5144
lradius 85.2415
lwrist -4.30957
lhand -30.9879 10.7239
lfingers 7.12502
lthumb -4.27143 40.6608
rfemur 2.72302 5.30358 18.3833
rtibia 28.9973
rfoot -18.7592 -20.1896
rtoes 5.3588
lfemur -98.6656 -4.15996 -16.3521
ltibia 126.554
lfoot 11.3643 -12.7195
ltoes -5.40031
476
root -3.19988 18.672 -4.49401 -11.6872 13.219 6.49895
lowerback 25.8859 12.6059 2.40234
upperback 9.1425 17.1267 2.70066
thorax -3.84776 8.49255 -3.17686
lowerneck -10.3741 -8.0904 -8.35435
upperneck 6.43737 -10.6671 10.6239
head 4.6514 -4.90739 3.80331
rclavicle 7.51406e-014 -1.27222e-014
rhumerus 28.7535 -23.3329 -85.0367
rradius 149.036
rwrist -51.604
rhand -5.98026 8.0694
rfingers 7.12502
rthumb 19.8513 -20.9368
lclavicle 7.51406e-014 -1.27222e-014
lhumerus -38.8294 21.6236 26.2269
lradius 85.6755
lwrist -3.88771
lhand -31.0292 10.8505
lfingers 7.12502
lthumb -4.31138 40.7866
rfemur 2.69536 5.29244 18.0801
rtibia 28.8965
rfoot -18.9195 -20.1384
rtoes 5.80067
lfemur -98.532 -4.21574 -16.7949
ltibia 126.578
lfoot 10.9578 -12.3098
ltoes -5.5747
477
root -3.20282 18.6764 -4.48743 -11.4828 13.2387 6.52437
lowerback 25.4967 12.5468 2.36458
upperback 9.11874 17.0356 2.64266
thorax -3.68791 8.45734 -3.11333
lowerneck -10.2308 -7.94394 -8.32236
upperneck 6.47175 -10.4909 10.6808
head 4.62321 -4.82111 3.8378
rclavicle 2.14687e-014 -1.43125e-014
rhumerus 28.8316 -23.0474 -84.9328
rradius 149.082
rwrist -51.3142
rhand -6.32645 8.18738
rfingers 7.12502
rthumb 19.5185 -20.8529
lclavicle 2.14687e-014 -1.43125e-014
lhumerus -39.0271 22.0539 25.8086
lradius 85.9661
lwrist -3.66876
lhand -30.8579 10.3077
lfingers 7.12502
lthumb -4.14594 40.2471
rfemur 2.59546 5.44918 18.092
rtibia 28.7882
rfoot -19.0381 -20.1824
rtoes 6.0796
lfemur -98.3824 -4.00088 -16.9381
ltibia 126.554
lfoot 10.7496 -12.0575
ltoes -5.75788
478
root -3.21339 18.6828 -4.48856 -11.4423 13.4194 6.44549
lowerback 25.4292 12.4304 2.45382
upperback 9.07154 16.908 2.63001
thorax -3.68673 8.39569 -3.12772
lowerneck -10.0521 -7.84183 -8.34725
upperneck 6.46364 -10.3688 10.7664
head 4.58586 -4.76309 3.88624
rclavicle 1.47101e-014 3.18055e-015
rhumerus 28.8045 -22.8337 -84.7242
rradius 149.124
rwrist -50.9374
rhand -7.21988 8.14812
rfingers 7.12502
rthumb 18.6593 -20.977
lclavicle 1.47101e-014 3.18055e-015
lhumerus -39.0766 22.3521 25.6269
lradius 86.3347
lwrist -3.20123
lhand -30.9744 10.5329
lfingers 7.12502
lthumb -4.25843 40.47
rfemur 2.62696 5.55649 18.2538
rtibia 28.6627
rfoot -18.9892 -20.3972
rtoes 5.95571
lfemur -97.9368 -3.89543 -16.9432
ltibia 126.391
lfoot 10.7573 -11.9973
ltoes -5.40789
479
root -3.22321 18.6902 -4.4877 -11.3639 13.5401 6.48301
lowerback 25.277 12.389 2.43383
upperback 9.05732 16.8474 2.58714
thorax -3.62583 8.3701 -3.11536
lowerneck -10.1817 -7.91344 -8.34109
upperneck 6.73849 -10.4755 10.7168
head 4.69827 -4.80865 3.85209
rclavicle -7.35503e-014 3.97569e-014
rhumerus 28.8217 -22.7142 -84.4893
rradius 149.134
rwrist -50.6681
rhand -7.77806 7.91907
rfingers 7.12502
rthumb 18.1224 -21.2567
lclavicle -7.35503e-014 3.97569e-014
lhumerus -38.922 22.6819 25.6187
lradius 86.6965
lwrist -2.90684
lhand -30.969 10.608
lfingers 7.12502
lthumb -4.25316 40.5453
rfemur 2.63286 5.66883 18.282
rtibia 28.5622
rfoot -18.9704 -20.5635
rtoes 5.7909
lfemur -97.3234 -3.72134 -17.041
ltibia 126.122
lfoot 10.8612 -12.0314
ltoes -5.05377
480
root -3.22701 18.7036 -4.48529 -11.0686 13.8175 7.01041
lowerback 24.996 12.3279 1.9876
upperback 9.02819 16.652 2.36664
thorax -3.58751 8.27536 -3.02311
lowerneck -10.2912 -7.94179 -8.32991
upperneck 6.95758 -10.5193 10.6488
head 4.783 -4.82606 3.81884
rclavicle 1.0297e-013 -3.65764e-014
rhumerus 28.884 -22.5947 -84.3464
rradius 149.159
rwrist -50.6118
rhand -7.7736 7.94939
rfingers 7.12502
rthumb 18.1267 -21.226
lclavicle 1.0297e-013 -3.65764e-014
lhumerus -38.7855 23.026 25.5725
lradius 87.0634
lwrist -2.57465
lhand -30.9966 10.7094
lfingers 7.12502
lthumb -4.27984 40.6462
rfemur 2.56034 5.53935 17.6614
rtibia 28.4863
rfoot -19.0659 -20.4911
rtoes 5.72466
lfemur -96.495 -4.01267 -17.579
ltibia 125.686
lfoot 10.7933 -11.7634
ltoes -4.93105
481
root -3.22715 18.7184 -4.4834 -10.5904 14.1889 7.78751
lowerback 24.6359 12.2339 1.33569
upperback 8.96388 16.3666 2.07286
thorax -3.58491 8.13258 -2.87329
lowerneck -10.0996 -7.89857 -8.50021
upperneck 6.79857 -10.4463 10.7336
head 4.70941 -4.79967 3.88721
rclavicle -1.70557e-013 8.11041e-014
rhumerus 28.9068 -22.4454 -84.152
rradius 149.202
rwrist -50.6306
rhand -7.61879 8.24019
rfingers 7.12502
rthumb 18.2756 -20.9213
lclavicle -1.70557e-013 8.11041e-014
lhumerus -38.6934 23.3145 25.5218
lradius 87.3988
lwrist -2.15089
lhand -31.1009 10.8118
lfingers 7.12502
lthumb -4.38055 40.7465
rfemur 2.37787 5.30506 16.7072
rtibia 28.4229
rfoot -19.1386 -20.3497
rtoes 5.71149
lfemur -95.55 -4.52792 -18.3373
ltibia 125.191
lfoot 10.5352 -11.2988
ltoes -4.82015
482
root -3.23427 18.7213 -4.47738 -10.4341 14.3156 7.8635
lowerback 24.3582 12.1251 1.24719
upperback 8.91416 16.205 2.00416
thorax -3.51725 8.05606 -2.80894
lowerneck -9.89096 -7.88933 -8.752
upperneck 6.56574 -10.4182 10.9574
head 4.62729 -4.7916 4.00834
rclavicle 1.08536e-013 -9.54166e-014
rhumerus 28.9152 -22.3466 -83.9533
rradius 149.242
rwrist -50.8249
rhand -7.61373 8.49036
rfingers 7.12502
rthumb 18.2805 -20.6707
lclavicle 1.08536e-013 -9.54166e-014
lhumerus -38.4955 23.6004 25.5652
lradius 87.6774
lwrist -1.67926
lhand -31.2109 10.7515
lfingers 7.12502
lthumb -4.48678 40.6839
rfemur 2.32225 5.36706 16.6716
rtibia 28.3723
rfoot -19.2427 -20.4953
rtoes 5.70108
lfemur -94.5574 -4.33479 -18.3871
ltibia 124.751
lfoot 10.4381 -11.2145
ltoes -4.8569
